# xmcd CD database file
#
# Track frame offsets:
#	150
#	19743
#	40472
#	62894
#	81005
#	104545
#	121498
#	137527
#	154470
#	171674
#	203307
#	219690
#	236600
#	252409
#
# Disc length: 3629 seconds
#
# Revision: 0
# Processed by: cddbd v1.5.2PL0 Copyright (c) Steve Scherf et al.
# Submitted via: CDex 1.70beta2
#
DISCID=cc0e2b0e
DTITLE=Dr. John - Creole Moon
DYEAR=2001
DGENRE=Jazz
TTITLE0=Dr John - 01 - You Swore
TTITLE1=Dr John - 02 - In The Name Of You
TTITLE2=Dr John - 03 - Food For Thot
TTITLE3=Dr John - 04 - Holdin' Pattern
TTITLE4=Dr John - 05 - Bruha Bembe
TTITLE5=Dr John - 06 - Imitation Of Love
TTITLE6=Dr John - 07 - Now That You Got Me
TTITLE7=Dr John - 08 - Creole Moon
TTITLE8=Dr John - 09 - Georgianna
TTITLE9=Dr John - 10 - Monkey And Baboon
TTITLE10=Dr John - 11 - Take What I Can Get
TTITLE11=Dr John - 12 - Queen Of Cold
TTITLE12=Dr John - 13 - Litenin
TTITLE13=Dr John - 14 - One 2AM Too Many
EXTD=YEAR: 2001
EXTT0=
EXTT1=
EXTT2=
EXTT3=
EXTT4=
EXTT5=
EXTT6=
EXTT7=
EXTT8=
EXTT9=
EXTT10=
EXTT11=
EXTT12=
EXTT13=
PLAYORDER=
